HIERARCHY
ROOT Hips
{
	OFFSET 0.000000 71.427986 0.000000
	CHANNELS 6 Xposition Yposition Zposition Xrotation Yrotation Zrotation
	JOINT Pelvis
	{
		OFFSET 0.000000 0.000000 0.000000
		CHANNELS 3 Xrotation Yrotation Zrotation
		JOINT LeftUpLeg
		{
			OFFSET 6.797100 -2.508499 -1.318700
			CHANNELS 3 Xrotation Yrotation Zrotation
			JOINT LeftLeg
			{
				OFFSET 0.069008 -29.241863 0.690200
				CHANNELS 3 Xrotation Yrotation Zrotation
				JOINT LeftFoot
				{
					OFFSET -0.069008 -29.568123 -0.266800
					CHANNELS 3 Xrotation Yrotation Zrotation
					JOINT LeftToeBase
					{
						OFFSET 3.145500 -8.631000 16.059900
						CHANNELS 3 Xrotation Yrotation Zrotation
						End Site
						{
							OFFSET 0.000000 18.501587 0.000000
						}
					}
				}
			}
			JOINT Left_ShortSleeve
			{
				OFFSET 0.265923 -10.480953 1.153800
				CHANNELS 3 Xrotation Yrotation Zrotation
				End Site
				{
					OFFSET 1.725763 19.823879 0.000000
				}
			}
		}
		JOINT RightUpLeg
		{
			OFFSET -6.797100 -2.508499 -1.318700
			CHANNELS 3 Xrotation Yrotation Zrotation
			JOINT RightLeg
			{
				OFFSET -0.082453 -29.241932 0.688000
				CHANNELS 3 Xrotation Yrotation Zrotation
				JOINT RightFoot
				{
					OFFSET 0.082453 -29.568058 -0.264600
					CHANNELS 3 Xrotation Yrotation Zrotation
					JOINT RightToeBase
					{
						OFFSET -3.115300 -8.682800 16.113400
						CHANNELS 3 Xrotation Yrotation Zrotation
						End Site
						{
							OFFSET 0.000000 18.567114 0.000000
						}
					}
				}
			}
			JOINT Right_ShortSleeve
			{
				OFFSET -0.265923 -10.480953 1.153800
				CHANNELS 3 Xrotation Yrotation Zrotation
				End Site
				{
					OFFSET -1.725766 19.823910 0.000000
				}
			}
		}
	}
	JOINT Spine
	{
		OFFSET 0.000000 13.368103 0.470500
		CHANNELS 3 Xrotation Yrotation Zrotation
		JOINT Spine1
		{
			OFFSET 0.147000 13.837402 0.538800
			CHANNELS 3 Xrotation Yrotation Zrotation
			JOINT Spine2
			{
				OFFSET 0.168000 16.242897 -1.435500
				CHANNELS 3 Xrotation Yrotation Zrotation
				JOINT Neck
				{
					OFFSET 0.217200 18.631500 -1.679100
					CHANNELS 3 Xrotation Yrotation Zrotation
					JOINT Head
					{
						OFFSET 0.000000 6.599396 1.385900
						CHANNELS 3 Xrotation Yrotation Zrotation
						JOINT Hat
						{
							OFFSET -0.532200 27.220596 -10.096100
							CHANNELS 3 Xrotation Yrotation Zrotation
							End Site
							{
								OFFSET 0.000000 22.029861 0.000000
							}
						}
						JOINT HairD
						{
							OFFSET -10.777400 17.437393 -1.325900
							CHANNELS 3 Xrotation Yrotation Zrotation
							JOINT HairD1
							{
								OFFSET -3.290299 -11.051193 1.062200
								CHANNELS 3 Xrotation Yrotation Zrotation
								End Site
								{
									OFFSET 0.000000 11.579437 0.000000
								}
							}
						}
						JOINT HairB
						{
							OFFSET -10.777400 17.437393 1.467900
							CHANNELS 3 Xrotation Yrotation Zrotation
							JOINT HairB1
							{
								OFFSET -1.561200 -12.956299 3.590200
								CHANNELS 3 Xrotation Yrotation Zrotation
								End Site
								{
									OFFSET 0.000000 13.534866 0.000000
								}
							}
						}
						JOINT HairA
						{
							OFFSET 9.713100 17.437393 1.467900
							CHANNELS 3 Xrotation Yrotation Zrotation
							JOINT HairA1
							{
								OFFSET 1.561200 -12.956299 3.590200
								CHANNELS 3 Xrotation Yrotation Zrotation
								End Site
								{
									OFFSET 0.000000 13.534866 0.000000
								}
							}
						}
						JOINT HairC
						{
							OFFSET 9.713100 17.437393 -1.325900
							CHANNELS 3 Xrotation Yrotation Zrotation
							JOINT HairC1
							{
								OFFSET 3.290300 -11.051193 1.062200
								CHANNELS 3 Xrotation Yrotation Zrotation
								End Site
								{
									OFFSET 0.000000 11.579437 0.000000
								}
							}
						}
					}
				}
				JOINT LeftShoulder
				{
					OFFSET 5.101800 15.108002 -2.763700
					CHANNELS 3 Xrotation Yrotation Zrotation
					JOINT LeftArm
					{
						OFFSET 9.825497 2.506317 -1.597400
						CHANNELS 3 Xrotation Yrotation Zrotation
						JOINT LeftForeArm
						{
							OFFSET 21.966244 0.000000 0.000000
							CHANNELS 3 Xrotation Yrotation Zrotation
							JOINT LeftHand
							{
								OFFSET 33.879036 0.000000 0.000000
								CHANNELS 3 Xrotation Yrotation Zrotation
								JOINT LeftHandThumb1
								{
									OFFSET 6.715286 -2.359680 3.363841
									CHANNELS 3 Xrotation Yrotation Zrotation
									JOINT LeftHandThumb2
									{
										OFFSET 2.507072 -1.447464 1.447461
										CHANNELS 3 Xrotation Yrotation Zrotation
										JOINT LeftHandThumb3
										{
											OFFSET 2.898338 -1.673355 1.673357
											CHANNELS 3 Xrotation Yrotation Zrotation
											End Site
											{
												OFFSET -0.295959 3.727692 -0.131651
											}
										}
									}
								}
								JOINT LeftHandIndex1
								{
									OFFSET 14.190811 -0.254547 3.840278
									CHANNELS 3 Xrotation Yrotation Zrotation
									JOINT LeftHandIndex2
									{
										OFFSET 3.551727 0.000000 -0.000000
										CHANNELS 3 Xrotation Yrotation Zrotation
										JOINT LeftHandIndex3
										{
											OFFSET 2.894196 0.000000 0.000000
											CHANNELS 3 Xrotation Yrotation Zrotation
											End Site
											{
												OFFSET -1.000603 2.690872 0.366626
											}
										}
									}
								}
								JOINT LeftHandMiddle1
								{
									OFFSET 13.776489 0.000000 0.000000
									CHANNELS 3 Xrotation Yrotation Zrotation
									JOINT LeftHandMiddle2
									{
										OFFSET 3.438232 0.000000 0.000000
										CHANNELS 3 Xrotation Yrotation Zrotation
										JOINT LeftHandMiddle3
										{
											OFFSET 3.691551 0.000000 0.000000
											CHANNELS 3 Xrotation Yrotation Zrotation
											End Site
											{
												OFFSET -1.082298 3.499527 0.457670
											}
										}
									}
								}
								JOINT LeftHandRing1
								{
									OFFSET 13.966164 -0.268127 -3.067488
									CHANNELS 3 Xrotation Yrotation Zrotation
									JOINT LeftHandRing2
									{
										OFFSET 3.162567 0.000000 0.000000
										CHANNELS 3 Xrotation Yrotation Zrotation
										JOINT LeftHandRing3
										{
											OFFSET 3.324348 0.000000 0.000000
											CHANNELS 3 Xrotation Yrotation Zrotation
											End Site
											{
												OFFSET -0.861900 3.184998 0.405154
											}
										}
									}
								}
								JOINT LeftHandPinky1
								{
									OFFSET 13.131393 -0.168503 -5.746925
									CHANNELS 3 Xrotation Yrotation Zrotation
									JOINT LeftHandPinky2
									{
										OFFSET 2.849182 0.000000 0.000000
										CHANNELS 3 Xrotation Yrotation Zrotation
										JOINT LeftHandPinky3
										{
											OFFSET 2.805038 0.000000 0.000000
											CHANNELS 3 Xrotation Yrotation Zrotation
											End Site
											{
												OFFSET -0.882500 2.642609 0.325652
											}
										}
									}
								}
							}
							JOINT Left_Sleeve
							{
								OFFSET 6.592125 -0.646545 0.805568
								CHANNELS 3 Xrotation Yrotation Zrotation
								End Site
								{
									OFFSET -0.000179 20.275787 -0.000000
								}
							}
						}
					}
				}
				JOINT RightShoulder
				{
					OFFSET -5.731700 15.108002 -2.763700
					CHANNELS 3 Xrotation Yrotation Zrotation
					JOINT RightArm
					{
						OFFSET -9.825497 2.506317 -1.597400
						CHANNELS 3 Xrotation Yrotation Zrotation
						JOINT RightForeArm
						{
							OFFSET -21.966242 0.000000 0.000000
							CHANNELS 3 Xrotation Yrotation Zrotation
							JOINT RightHand
							{
								OFFSET -33.879032 0.000000 0.000000
								CHANNELS 3 Xrotation Yrotation Zrotation
								JOINT RightHandThumb1
								{
									OFFSET -6.715286 -2.359680 3.363841
									CHANNELS 3 Xrotation Yrotation Zrotation
									JOINT RightHandThumb2
									{
										OFFSET -2.507072 -1.447464 1.447461
										CHANNELS 3 Xrotation Yrotation Zrotation
										JOINT RightHandThumb3
										{
											OFFSET -2.898338 -1.673355 1.673357
											CHANNELS 3 Xrotation Yrotation Zrotation
											End Site
											{
												OFFSET 0.295959 3.727692 -0.131651
											}
										}
									}
								}
								JOINT RightHandIndex1
								{
									OFFSET -14.190811 -0.254547 3.840278
									CHANNELS 3 Xrotation Yrotation Zrotation
									JOINT RightHandIndex2
									{
										OFFSET -3.551727 0.000000 -0.000000
										CHANNELS 3 Xrotation Yrotation Zrotation
										JOINT RightHandIndex3
										{
											OFFSET -2.894196 0.000000 0.000000
											CHANNELS 3 Xrotation Yrotation Zrotation
											End Site
											{
												OFFSET 1.000603 2.690872 0.366626
											}
										}
									}
								}
								JOINT RightHandMiddle1
								{
									OFFSET -13.776489 0.000000 0.000000
									CHANNELS 3 Xrotation Yrotation Zrotation
									JOINT RightHandMiddle2
									{
										OFFSET -3.438232 0.000000 0.000000
										CHANNELS 3 Xrotation Yrotation Zrotation
										JOINT RightHandMiddle3
										{
											OFFSET -3.691551 0.000000 0.000000
											CHANNELS 3 Xrotation Yrotation Zrotation
											End Site
											{
												OFFSET 1.082298 3.499527 0.457670
											}
										}
									}
								}
								JOINT RightHandRing1
								{
									OFFSET -13.966164 -0.268127 -3.067488
									CHANNELS 3 Xrotation Yrotation Zrotation
									JOINT RightHandRing2
									{
										OFFSET -3.162567 0.000000 0.000000
										CHANNELS 3 Xrotation Yrotation Zrotation
										JOINT RightHandRing3
										{
											OFFSET -3.324348 0.000000 0.000000
											CHANNELS 3 Xrotation Yrotation Zrotation
											End Site
											{
												OFFSET 0.861900 3.184998 0.405154
											}
										}
									}
								}
								JOINT RightHandPinky1
								{
									OFFSET -13.131393 -0.168503 -5.746925
									CHANNELS 3 Xrotation Yrotation Zrotation
									JOINT RightHandPinky2
									{
										OFFSET -2.849182 0.000000 0.000000
										CHANNELS 3 Xrotation Yrotation Zrotation
										JOINT RightHandPinky3
										{
											OFFSET -2.805038 0.000000 0.000000
											CHANNELS 3 Xrotation Yrotation Zrotation
											End Site
											{
												OFFSET 0.882500 2.642609 0.325652
											}
										}
									}
								}
							}
							JOINT Right_Sleeve
							{
								OFFSET -6.592125 -0.646545 0.805568
								CHANNELS 3 Xrotation Yrotation Zrotation
								End Site
								{
									OFFSET 0.000179 20.275787 -0.000000
								}
							}
						}
					}
				}
				JOINT Bind_Right_JacketString
				{
					OFFSET -3.534800 11.969597 7.200700
					CHANNELS 3 Xrotation Yrotation Zrotation
					JOINT Bind_Right_JacketString1
					{
						OFFSET -0.319900 -6.102600 2.794100
						CHANNELS 3 Xrotation Yrotation Zrotation
						End Site
						{
							OFFSET 0.000000 6.719452 0.000000
						}
					}
				}
				JOINT Bind_Left_JacketString
				{
					OFFSET 2.904800 11.969597 7.200700
					CHANNELS 3 Xrotation Yrotation Zrotation
					JOINT Bind_Left_JacketString1
					{
						OFFSET 0.364800 -5.904503 3.186800
						CHANNELS 3 Xrotation Yrotation Zrotation
						End Site
						{
							OFFSET 0.000000 6.719513 0.000000
						}
					}
				}
				JOINT HairE
				{
					OFFSET 5.915200 17.612701 -11.592200
					CHANNELS 3 Xrotation Yrotation Zrotation
					JOINT HairE1
					{
						OFFSET 0.289200 -7.171898 -1.284500
						CHANNELS 3 Xrotation Yrotation Zrotation
						End Site
						{
							OFFSET 0.000000 7.291756 0.000000
						}
					}
				}
				JOINT HairF
				{
					OFFSET -0.864800 17.612701 -11.592200
					CHANNELS 3 Xrotation Yrotation Zrotation
					JOINT HairF1
					{
						OFFSET 0.000000 -14.087097 -2.127501
						CHANNELS 3 Xrotation Yrotation Zrotation
						End Site
						{
							OFFSET 0.000000 14.246841 0.000000
						}
					}
				}
				JOINT HairG
				{
					OFFSET -8.087700 17.612701 -11.592200
					CHANNELS 3 Xrotation Yrotation Zrotation
					JOINT HairG1
					{
						OFFSET -0.293600 -6.081398 -0.910100
						CHANNELS 3 Xrotation Yrotation Zrotation
						End Site
						{
							OFFSET 0.000000 6.156120 0.000000
						}
					}
				}
			}
		}
	}
	JOINT Pouch
	{
		OFFSET 0.000000 4.394501 10.847300
		CHANNELS 3 Xrotation Yrotation Zrotation
		End Site
		{
			OFFSET 0.000000 21.880577 0.000000
		}
	}
	JOINT Bag
	{
		OFFSET -13.229000 4.813004 -0.593300
		CHANNELS 3 Xrotation Yrotation Zrotation
		End Site
		{
			OFFSET 0.000000 21.880577 0.000000
		}
	}
	JOINT OccupyGuyFacialAnim_Joint
	{
		OFFSET 1.000000 -70.206398 -1.655000
		CHANNELS 3 Xrotation Yrotation Zrotation
		End Site
		{
			OFFSET 0.000000 21.880577 0.000000
		}
	}
}
MOTION
Frames: 4
Frame Time: 0.016667
-0.115840 70.670891 1.494805 -5.480948 -12.111312 -0.947809 0.000000 -0.000000 -0.000000 1.510248 21.546088 -0.175226 15.862028 4.492716 1.221764 -12.293859 -1.224185 -0.750208 -0.000000 0.000000 -0.000000 0.000000 0.000001 0.000000 -0.502523 -9.653612 -9.682160 2.608410 -13.991865 -0.281049 5.165871 -0.064648 7.706117 -0.000000 0.000002 0.000000 0.000000 -0.000002 -0.000001 12.266099 1.491830 -1.762164 -3.993953 -8.493228 0.813504 -5.969558 4.580066 -2.629902 11.255316 0.027613 0.080739 -1.984797 -0.580073 3.370286 0.000000 0.000001 0.000000 0.000000 0.000001 0.000000 0.000000 0.000001 -0.000000 0.000000 0.000001 -0.000000 0.000000 0.000002 -0.000000 0.000000 0.000001 -0.000000 0.000000 0.000002 -0.000000 0.000000 0.000001 0.000000 0.000000 0.000001 0.000000 4.233562 -14.085165 -0.897022 5.919386 4.805974 -79.119402 2.144037 -12.162864 0.993656 -12.199777 -3.041352 9.443716 -3.785201 8.458458 12.351812 7.455434 11.608363 -1.288635 -0.000000 -0.000000 -0.000002 2.384617 3.620112 -6.815645 0.018935 0.237208 -17.103729 0.000002 -0.000001 -0.000000 -1.935800 5.644689 -11.386949 0.101773 0.660605 -24.767601 0.000001 -0.000001 -0.000001 -4.873189 10.020068 -7.875427 -0.044686 0.326932 -30.086106 -0.000001 0.000001 -0.000001 -6.437507 11.282623 -19.770971 0.059309 0.243042 -30.857610 0.000001 -0.000001 -0.000001 -0.000002 0.000001 -0.000000 3.456615 7.912192 4.381425 4.870322 0.880827 78.811818 0.216084 17.510300 -0.089634 -4.831397 -4.161988 -10.247031 -0.464255 -8.992499 -6.084812 7.446400 -11.613885 1.293123 -0.000000 0.000000 -0.000002 2.362523 -3.634255 8.333193 0.012279 -0.255074 18.622497 -0.000000 -0.000000 0.000000 -1.983658 -5.671260 13.530165 0.138085 -0.655755 26.914191 -0.000000 -0.000001 0.000001 -4.977975 -10.100806 10.695758 -0.008988 -0.341856 32.924025 0.000001 -0.000000 -0.000001 -6.474086 -11.323145 23.226039 0.083649 -0.233783 34.317999 0.000001 0.000001 -0.000005 -0.000000 -0.000001 -0.000000 -0.000000 0.000001 0.000000 -0.000000 0.000001 0.000000 -0.000000 0.000001 -0.000000 -0.000000 0.000001 -0.000000 -0.000000 0.000001 0.000000 -0.000000 0.000001 0.000000 -0.000000 0.000001 -0.000000 -0.000000 0.000001 -0.000000 -0.000000 0.000001 0.000000 -0.000000 0.000001 0.000000 0.000000 -0.000000 -0.000000 0.000000 -0.000000 -0.000000 0.000000 -0.000000 -0.000000 
-0.147790 70.652077 1.436617 -5.459725 -11.933464 -0.958931 -0.000000 -0.000001 -0.000000 1.204677 21.552150 -0.003145 16.218983 4.285443 1.209138 -12.389492 -1.206929 -0.736414 -0.000000 0.000001 -0.000000 -0.000000 -0.000001 -0.000000 -0.870603 -9.592074 -9.696240 3.333804 -13.965407 -0.289213 4.801086 -0.078439 7.793348 -0.000000 0.000000 0.000000 0.000001 -0.000001 -0.000000 12.289511 1.504747 -1.845726 -4.009648 -8.492098 0.838626 -5.990858 4.581322 -2.607013 11.197291 -0.037176 0.154592 -1.933322 -0.649541 3.461111 0.000000 -0.000002 0.000000 0.000000 -0.000002 0.000000 0.000000 -0.000002 0.000000 0.000000 -0.000002 0.000000 -0.000000 -0.000000 0.000000 0.000000 -0.000002 0.000000 -0.000000 -0.000000 0.000000 0.000000 -0.000002 0.000000 0.000000 -0.000002 0.000000 4.134858 -13.909759 -1.027313 5.833298 4.715154 -78.638317 2.464687 -12.082313 0.839255 -11.971004 -2.884893 9.022999 -3.764281 8.410114 12.319248 7.372641 11.506804 -1.247454 0.000001 -0.000000 -0.000001 2.321423 3.520238 -6.821864 0.019651 0.237890 -17.855240 0.000001 0.000003 -0.000001 -1.898748 5.569509 -11.597247 0.101641 0.651974 -24.994625 -0.000001 -0.000001 -0.000001 -4.774470 9.989805 -8.066123 -0.044682 0.327390 -30.156095 -0.000001 0.000001 -0.000004 -6.325158 11.199826 -19.847999 0.058973 0.242582 -30.742586 0.000001 -0.000000 0.000005 0.000002 0.000001 -0.000001 3.381226 7.803407 4.537100 5.024065 1.620400 78.436130 0.420643 17.682392 -0.003078 -5.282818 -3.964287 -10.374940 -0.507304 -9.279072 -6.121835 7.209214 -11.240095 1.219499 -0.000000 0.000000 0.000003 2.356832 -3.533953 8.694482 0.011843 -0.249321 18.450701 -0.000000 -0.000001 0.000000 -1.904670 -5.449620 13.745681 0.133093 -0.634496 26.482344 -0.000001 0.000000 -0.000001 -4.780963 -9.668432 11.141328 -0.009694 -0.329682 32.368830 0.000000 0.000000 0.000001 -6.359780 -10.736987 23.396432 0.076958 -0.231842 33.790681 -0.000000 0.000001 0.000001 0.000000 0.000001 -0.000001 0.000000 0.000000 -0.000000 -0.000000 0.000000 -0.000000 0.000000 0.000000 -0.000000 0.000000 0.000000 -0.000000 0.000000 0.000000 -0.000000 -0.000000 0.000000 -0.000000 0.000000 0.000000 -0.000000 0.000000 0.000000 -0.000000 0.000000 0.000000 -0.000000 -0.000000 0.000000 -0.000000 -0.000000 -0.000001 -0.000000 -0.000000 -0.000001 -0.000000 -0.000000 -0.000001 -0.000000 
-0.179239 70.630936 1.371779 -5.402141 -11.741169 -0.981199 -0.000000 0.000001 -0.000000 0.819039 21.586946 0.208857 16.626079 3.998210 1.191575 -12.500274 -1.157373 -0.703735 -0.000000 0.000001 -0.000000 -0.000000 -0.000001 -0.000000 -1.225849 -9.536331 -9.674069 3.964413 -13.989547 -0.315263 4.478146 -0.066708 7.874467 -0.000000 0.000000 0.000000 -0.000000 -0.000002 0.000001 12.267138 1.509983 -1.915674 -4.018684 -8.493298 0.862145 -6.005033 4.580155 -2.583796 11.160980 -0.091039 0.230802 -1.910303 -0.714431 3.577410 0.000000 0.000001 0.000000 0.000000 0.000001 0.000000 0.000000 0.000001 -0.000000 0.000000 0.000001 -0.000000 0.000000 0.000001 -0.000000 0.000000 0.000001 -0.000000 0.000000 0.000001 -0.000000 0.000000 0.000001 0.000000 0.000000 0.000001 0.000000 4.037700 -13.737896 -1.155441 5.705736 4.632394 -78.161482 2.775904 -11.939524 0.681366 -11.739154 -2.759560 8.593611 -3.751114 8.349381 12.295316 7.298337 11.419268 -1.207312 0.000001 -0.000000 0.000000 2.257671 3.427921 -6.819783 0.023237 0.238442 -18.684495 -0.000000 0.000001 0.000000 -1.862102 5.502070 -11.816819 0.101813 0.643606 -25.268188 0.000001 0.000001 0.000003 -4.681522 9.963953 -8.246969 -0.044629 0.328112 -30.263335 0.000000 0.000000 -0.000003 -6.218972 11.123551 -19.917491 0.058690 0.242169 -30.644095 -0.000001 -0.000001 -0.000001 0.000000 -0.000001 -0.000000 3.306760 7.693740 4.690967 5.157375 2.358697 78.058913 0.618395 17.828505 0.086466 -5.725242 -3.745774 -10.502818 -0.553306 -9.581180 -6.161852 6.959109 -10.845800 1.144359 0.000000 0.000000 0.000001 2.350868 -3.428252 9.075747 0.011336 -0.243160 18.269291 0.000001 0.000001 -0.000001 -1.823163 -5.215164 13.972295 0.127793 -0.612062 26.026627 0.000001 -0.000000 0.000001 -4.580354 -9.209579 11.607398 -0.010354 -0.316796 31.782772 0.000003 -0.000000 -0.000001 -6.242224 -10.117670 23.571475 0.069919 -0.225118 33.234338 0.000000 0.000003 -0.000004 0.000000 -0.000000 -0.000000 -0.000000 0.000001 -0.000000 -0.000000 0.000001 0.000000 -0.000000 0.000001 -0.000000 -0.000000 0.000001 -0.000000 -0.000000 0.000001 -0.000000 -0.000000 0.000001 0.000000 -0.000000 0.000001 -0.000000 -0.000000 0.000001 -0.000000 -0.000000 0.000001 -0.000000 -0.000000 0.000001 0.000000 -0.000000 0.000001 -0.000000 -0.000000 0.000001 -0.000000 -0.000000 0.000001 -0.000000 
-0.193738 70.601517 1.281369 -5.271667 -11.507650 -1.033521 -0.000000 -0.000000 -0.000000 0.225913 21.646939 0.503313 17.193341 3.612204 1.168433 -12.661870 -1.080154 -0.630766 -0.000000 -0.000000 0.000000 -0.000000 0.000000 0.000001 -1.625649 -9.477153 -9.602085 4.518197 -14.089026 -0.354573 4.217488 -0.030271 7.952414 -0.000000 0.000002 0.000000 0.000001 -0.000000 -0.000000 12.165085 1.494535 -1.933193 -4.021895 -8.515546 0.871765 -6.003064 4.558937 -2.572198 11.158117 -0.114066 0.288823 -1.943715 -0.770576 3.768100 -0.000000 -0.000001 0.000000 -0.000000 -0.000001 0.000000 -0.000000 -0.000001 0.000000 -0.000000 -0.000001 0.000000 -0.000000 -0.000001 -0.000000 -0.000000 -0.000001 0.000000 -0.000000 -0.000001 -0.000000 -0.000000 -0.000001 0.000000 -0.000000 -0.000001 0.000000 3.942083 -13.570000 -1.281384 5.619340 4.574184 -77.694713 3.051957 -11.904678 0.522628 -11.509800 -2.582422 8.194525 -3.744032 8.279128 12.277974 7.230602 11.342597 -1.167962 0.000000 -0.000002 -0.000002 2.193390 3.341379 -6.811394 0.027116 0.239047 -19.573125 0.000003 0.000002 0.000000 -1.826023 5.440490 -12.043521 0.101620 0.635388 -25.577284 0.000002 -0.000000 0.000001 -4.593005 9.941409 -8.420077 -0.044569 0.329005 -30.399454 0.000001 0.000002 -0.000002 -6.117678 11.052290 -19.980924 0.058446 0.241811 -30.558481 0.000001 -0.000001 0.000004 0.000001 0.000001 -0.000000 3.233186 7.582018 4.843431 5.215428 3.086636 77.680561 0.821299 17.890999 0.179985 -6.140636 -3.482973 -10.626890 -0.602032 -9.897170 -6.204845 6.697319 -10.433169 1.068090 -0.000000 0.000001 0.000003 2.344623 -3.317803 9.474906 0.008472 -0.236757 18.079512 0.000001 0.000000 0.000000 -1.739757 -4.969235 14.208428 0.122233 -0.588449 25.549627 0.000000 -0.000000 -0.000001 -4.378353 -8.726571 12.090906 -0.011010 -0.303309 31.169510 -0.000001 0.000000 -0.000001 -6.122420 -9.468425 23.749505 0.062742 -0.217969 32.652074 0.000001 0.000001 0.000001 -0.000000 0.000000 -0.000000 -0.000000 0.000000 -0.000000 -0.000000 0.000000 0.000000 -0.000000 0.000000 -0.000000 -0.000000 0.000000 -0.000000 -0.000000 0.000000 -0.000000 -0.000000 0.000000 -0.000000 -0.000000 0.000000 -0.000000 -0.000000 0.000000 -0.000000 -0.000000 0.000000 -0.000000 -0.000000 0.000000 -0.000000 -0.000000 -0.000000 -0.000000 -0.000000 -0.000000 -0.000000 -0.000000 -0.000000 -0.000000 
